<svg width="15" height="20" viewBox="0 0 15 20" fill="none" xmlns="http://www.w3.org/2000/svg">
    <path
        d="M13.125 17.5V6.25H10C9.29688 6.25 8.75 5.70312 8.75 5V1.875H2.5C2.14844 1.875 1.875 2.1875 1.875 2.5V17.5C1.875 17.8516 2.14844 18.125 2.5 18.125H12.5C12.8125 18.125 13.125 17.8516 13.125 17.5ZM0 2.5C0 1.13281 1.09375 0 2.5 0H8.94531C9.60938 0 10.2344 0.273438 10.7031 0.742188L14.2578 4.29688C14.7266 4.76562 15 5.39062 15 6.05469V17.5C15 18.9062 13.8672 20 12.5 20H2.5C1.09375 20 0 18.9062 0 17.5V2.5ZM7.5 8.4375C7.92969 8.4375 8.28125 8.78906 8.28125 9.21875V9.60938C8.55469 9.64844 8.82812 9.72656 9.0625 9.76562C9.49219 9.88281 9.76562 10.3125 9.64844 10.7031C9.57031 11.1328 9.14062 11.4062 8.71094 11.2891C8.28125 11.2109 7.85156 11.1328 7.46094 11.1328C7.14844 11.0938 6.83594 11.1719 6.60156 11.2891C6.40625 11.4062 6.40625 11.4844 6.40625 11.5234C6.40625 11.5625 6.44531 11.6016 6.5625 11.6797C6.79688 11.7969 7.1875 11.9141 7.69531 12.0312C8.125 12.1484 8.71094 12.3047 9.14062 12.5781C9.60938 12.8516 10.1172 13.3203 10.1172 14.1016C10.1562 14.9219 9.6875 15.4688 9.14062 15.7422C8.86719 15.8984 8.55469 16.0156 8.24219 16.0547V16.4453C8.24219 16.875 7.89062 17.2266 7.46094 17.2266C7.03125 17.2266 6.67969 16.875 6.67969 16.4453V16.0156C6.28906 15.9766 5.9375 15.8594 5.625 15.7422C5.54688 15.7031 5.46875 15.7031 5.39062 15.6641C4.96094 15.5469 4.72656 15.1172 4.84375 14.6875C4.96094 14.2969 5.42969 14.0625 5.82031 14.1797C5.9375 14.2188 6.01562 14.2188 6.09375 14.2578C6.64062 14.4141 7.07031 14.5312 7.5 14.5703C7.85156 14.5703 8.16406 14.4922 8.39844 14.375C8.55469 14.2969 8.59375 14.2188 8.59375 14.1016C8.59375 14.1016 8.59375 14.0234 8.39844 13.9453C8.125 13.7891 7.77344 13.6719 7.26562 13.5547L7.22656 13.5156C6.79688 13.3984 6.25 13.2812 5.82031 13.0469C5.35156 12.7734 4.84375 12.3438 4.84375 11.5234C4.80469 10.7031 5.35156 10.1953 5.85938 9.92188C6.13281 9.76562 6.40625 9.6875 6.71875 9.64844V9.21875C6.71875 8.78906 7.07031 8.4375 7.5 8.4375ZM3.75 3.75H6.875C7.1875 3.75 7.5 4.0625 7.5 4.375C7.5 4.72656 7.1875 5 6.875 5H3.75C3.39844 5 3.125 4.72656 3.125 4.375C3.125 4.0625 3.39844 3.75 3.75 3.75ZM3.75 6.25H6.875C7.1875 6.25 7.5 6.5625 7.5 6.875C7.5 7.22656 7.1875 7.5 6.875 7.5H3.75C3.39844 7.5 3.125 7.22656 3.125 6.875C3.125 6.5625 3.39844 6.25 3.75 6.25Z"
        fill="#7E95C1" />
</svg>
    