<svg width="25" height="20" viewBox="0 0 25 20" fill="none" xmlns="http://www.w3.org/2000/svg">
    <path
        d="M5.625 6.25C4.49219 6.25 3.47656 5.66406 2.89062 4.6875C2.34375 3.75 2.34375 2.53906 2.89062 1.5625C3.47656 0.625 4.49219 0 5.625 0C6.71875 0 7.73438 0.625 8.32031 1.5625C8.86719 2.53906 8.86719 3.75 8.32031 4.6875C7.73438 5.66406 6.71875 6.25 5.625 6.25ZM20 6.25C18.8672 6.25 17.8516 5.66406 17.2656 4.6875C16.7188 3.75 16.7188 2.53906 17.2656 1.5625C17.8516 0.625 18.8672 0 20 0C21.0938 0 22.1094 0.625 22.6953 1.5625C23.2422 2.53906 23.2422 3.75 22.6953 4.6875C22.1094 5.66406 21.0938 6.25 20 6.25ZM0 11.6797C0 9.375 1.83594 7.5 4.14062 7.5H5.82031C6.44531 7.5 7.03125 7.65625 7.53906 7.89062C7.5 8.16406 7.5 8.47656 7.5 8.75C7.5 10.2734 8.125 11.6016 9.17969 12.5H9.14062H0.820312C0.351562 12.5 0 12.1484 0 11.6797ZM15.8203 12.5H15.7812C16.8359 11.6016 17.4609 10.2734 17.4609 8.75C17.4609 8.47656 17.4609 8.16406 17.4219 7.89062C17.9297 7.65625 18.5156 7.5 19.1406 7.5H20.8203C23.125 7.5 25 9.375 24.9609 11.6797C24.9609 12.1484 24.6094 12.5 24.1406 12.5H15.8203ZM12.5 6.875C11.7969 6.875 11.2109 7.26562 10.8594 7.8125C10.5078 8.39844 10.5078 9.14062 10.8594 9.6875C11.2109 10.2734 11.7969 10.625 12.5 10.625C13.1641 10.625 13.75 10.2734 14.1016 9.6875C14.4531 9.14062 14.4531 8.39844 14.1016 7.8125C13.75 7.26562 13.1641 6.875 12.5 6.875ZM12.5 12.5C11.1328 12.5 9.92188 11.7969 9.21875 10.625C8.55469 9.49219 8.55469 8.04688 9.21875 6.875C9.92188 5.74219 11.1328 5 12.5 5C13.8281 5 15.0391 5.74219 15.7422 6.875C16.4062 8.04688 16.4062 9.49219 15.7422 10.625C15.0391 11.7969 13.8281 12.5 12.5 12.5ZM10.1953 15.625C8.63281 15.625 7.34375 16.7188 6.95312 18.125H18.0078C17.6172 16.7188 16.3281 15.625 14.7656 15.625H10.1953ZM10.1953 13.75H14.7656C17.6562 13.75 20 16.0938 20 18.9844C20 19.5703 19.5312 20 18.9453 20H6.01562C5.42969 20 5 19.5312 5 18.9844C5 16.0938 7.30469 13.75 10.1953 13.75Z"
        fill="#7E95C1" />
</svg>
    